<?xml version="1.0" encoding="UTF-8" standalone="no"?><svg xmlns="http://www.w3.org/2000/svg" xmlns:xlink="http://www.w3.org/1999/xlink" contentScriptType="application/ecmascript" contentStyleType="text/css" height="220px" preserveAspectRatio="none" style="width:163px;height:220px;background:#FFFFFF;" version="1.1" viewBox="0 0 163 220" width="163px" zoomAndPan="magnify"><defs><filter height="300%" id="f182gnlwx5zh2h" width="300%" x="-1" y="-1"><feGaussianBlur result="blurOut" stdDeviation="2.0"/><feColorMatrix in="blurOut" result="blurOut2" type="matrix" values="0 0 0 0 0 0 0 0 0 0 0 0 0 0 0 0 0 0 .4 0"/><feOffset dx="4.0" dy="4.0" in="blurOut2" result="blurOut3"/><feBlend in="SourceGraphic" in2="blurOut3" mode="normal"/></filter></defs><g><rect fill="#FFFFFF" filter="url(#f182gnlwx5zh2h)" height="117.5313" style="stroke:#A80036;stroke-width:1.0;" width="10" x="22.5" y="50.2969"/><rect fill="#FFFFFF" filter="url(#f182gnlwx5zh2h)" height="87.3984" style="stroke:#A80036;stroke-width:1.0;" width="10" x="125.5" y="71.4297"/><line style="stroke:#A80036;stroke-width:1.0;stroke-dasharray:5.0,5.0;" x1="27" x2="27" y1="40.2969" y2="176.8281"/><line style="stroke:#A80036;stroke-width:1.0;stroke-dasharray:5.0,5.0;" x1="130" x2="130" y1="40.2969" y2="176.8281"/><rect fill="#FEFECE" filter="url(#f182gnlwx5zh2h)" height="30.2969" style="stroke:#A80036;stroke-width:1.5;" width="41" x="5" y="5"/><text fill="#000000" font-family="sans-serif" font-size="14" lengthAdjust="spacing" textLength="27" x="12" y="24.9951">131</text><rect fill="#FEFECE" filter="url(#f182gnlwx5zh2h)" height="30.2969" style="stroke:#A80036;stroke-width:1.5;" width="41" x="5" y="175.8281"/><text fill="#000000" font-family="sans-serif" font-size="14" lengthAdjust="spacing" textLength="27" x="12" y="195.8232">131</text><rect fill="#FEFECE" filter="url(#f182gnlwx5zh2h)" height="30.2969" style="stroke:#A80036;stroke-width:1.5;" width="41" x="108" y="5"/><text fill="#000000" font-family="sans-serif" font-size="14" lengthAdjust="spacing" textLength="27" x="115" y="24.9951">130</text><rect fill="#FEFECE" filter="url(#f182gnlwx5zh2h)" height="30.2969" style="stroke:#A80036;stroke-width:1.5;" width="41" x="108" y="175.8281"/><text fill="#000000" font-family="sans-serif" font-size="14" lengthAdjust="spacing" textLength="27" x="115" y="195.8232">130</text><rect fill="#FFFFFF" filter="url(#f182gnlwx5zh2h)" height="117.5313" style="stroke:#A80036;stroke-width:1.0;" width="10" x="22.5" y="50.2969"/><rect fill="#FFFFFF" filter="url(#f182gnlwx5zh2h)" height="87.3984" style="stroke:#A80036;stroke-width:1.0;" width="10" x="125.5" y="71.4297"/><polygon fill="#A80036" points="113.5,67.4297,123.5,71.4297,113.5,75.4297,117.5,71.4297" style="stroke:#A80036;stroke-width:1.0;"/><line style="stroke:#A80036;stroke-width:1.0;" x1="32.5" x2="119.5" y1="71.4297" y2="71.4297"/><text fill="#000000" font-family="sans-serif" font-size="13" font-weight="bold" lengthAdjust="spacing" textLength="9" x="39.5" y="66.3638">1</text><text fill="#000000" font-family="sans-serif" font-size="13" lengthAdjust="spacing" textLength="26" x="52.5" y="66.3638">SYN</text><polygon fill="#A80036" points="43.5,96.5625,33.5,100.5625,43.5,104.5625,39.5,100.5625" style="stroke:#A80036;stroke-width:1.0;"/><line style="stroke:#A80036;stroke-width:1.0;" x1="37.5" x2="124.5" y1="100.5625" y2="100.5625"/><text fill="#000000" font-family="sans-serif" font-size="13" font-weight="bold" lengthAdjust="spacing" textLength="9" x="49.5" y="95.4966">2</text><text fill="#000000" font-family="sans-serif" font-size="13" lengthAdjust="spacing" textLength="56" x="62.5" y="95.4966">SYN ACK</text><polygon fill="#A80036" points="113.5,125.6953,123.5,129.6953,113.5,133.6953,117.5,129.6953" style="stroke:#A80036;stroke-width:1.0;"/><line style="stroke:#A80036;stroke-width:1.0;" x1="32.5" x2="119.5" y1="129.6953" y2="129.6953"/><text fill="#000000" font-family="sans-serif" font-size="13" font-weight="bold" lengthAdjust="spacing" textLength="9" x="39.5" y="124.6294">3</text><text fill="#000000" font-family="sans-serif" font-size="13" lengthAdjust="spacing" textLength="26" x="52.5" y="124.6294">ACK</text><polygon fill="#A80036" points="118.5,154.8281,128.5,158.8281,118.5,162.8281,122.5,158.8281" style="stroke:#A80036;stroke-width:1.0;"/><line style="stroke:#A80036;stroke-width:1.0;" x1="32.5" x2="124.5" y1="158.8281" y2="158.8281"/><text fill="#000000" font-family="sans-serif" font-size="13" font-weight="bold" lengthAdjust="spacing" textLength="9" x="39.5" y="153.7622">4</text><text fill="#000000" font-family="sans-serif" font-size="13" lengthAdjust="spacing" textLength="54" x="52.5" y="153.7622">RST ACK</text></g></svg>